<?xml version="1.0" encoding="UTF-8"?>
<svg xmlns="http://www.w3.org/2000/svg" width="800" height="800" viewBox="0 0 800 800" preserveAspectRatio="xMidYMid slice">
  <defs>
    <linearGradient id="bg" x1="0" y1="0" x2="1" y2="1">
      <stop offset="0" stop-color="#2c2113"/>
      <stop offset="1" stop-color="#0D0B10"/>
    </linearGradient>
    <radialGradient id="vig" cx="0.5" cy="0.42" r="0.9">
      <stop offset="0.45" stop-color="#0D0B10" stop-opacity="0"/>
      <stop offset="1" stop-color="#0D0B10" stop-opacity="0.72"/>
    </radialGradient>
    <filter id="blur" x="-60%" y="-60%" width="220%" height="220%">
      <feGaussianBlur stdDeviation="44"/>
    </filter>
    <filter id="grain">
      <feTurbulence type="fractalNoise" baseFrequency="0.85" numOctaves="2" stitchTiles="stitch"/>
      <feColorMatrix type="saturate" values="0"/>
      <feComponentTransfer><feFuncA type="linear" slope="0.05"/></feComponentTransfer>
      <feComposite operator="over" in2="SourceGraphic"/>
    </filter>
  </defs>
  <rect width="800" height="800" fill="url(#bg)"/>
  <circle cx="433" cy="114" r="295" fill="#C9A86A" opacity="0.22" filter="url(#blur)"/><circle cx="294" cy="506" r="465" fill="#5A2634" opacity="0.19" filter="url(#blur)"/><circle cx="758" cy="641" r="393" fill="#D98C9A" opacity="0.10" filter="url(#blur)"/>
  <circle cx="547" cy="176" r="88" fill="none" stroke="#D98C9A" stroke-opacity="0.16" stroke-width="1" opacity="0.16"/><circle cx="547" cy="176" r="128" fill="none" stroke="#D98C9A" stroke-opacity="0.09" stroke-width="1" opacity="0.09"/><circle cx="547" cy="176" r="40" fill="none" stroke="#D98C9A" stroke-opacity="0.12" stroke-width="1" opacity="0.12"/>
  <path d="M0 623 C 160 511, 320 703, 440 583 S 680 695, 800 607 L 800 800 L 0 800 Z" fill="#0D0B10" opacity="0.42"/>
  <path d="
  M0 799
  C 200 663, 440 863, 800 735
  L 800 800 L 0 800 Z" fill="#0D0B10" opacity="0.3"/>
  <circle cx="1.3" cy="456.5" r="1.6" fill="#F5EFE6" opacity="0.39"/><circle cx="495.2" cy="183.8" r="1.4" fill="#F5EFE6" opacity="0.16"/><circle cx="174.3" cy="646.4" r="1.3" fill="#F5EFE6" opacity="0.51"/><circle cx="684.0" cy="786.9" r="1.9" fill="#F5EFE6" opacity="0.55"/><circle cx="457.7" cy="444.0" r="1.3" fill="#F5EFE6" opacity="0.33"/><circle cx="265.7" cy="582.5" r="2.2" fill="#F5EFE6" opacity="0.53"/><circle cx="740.6" cy="351.7" r="1.5" fill="#F5EFE6" opacity="0.14"/><circle cx="25.5" cy="512.4" r="2.1" fill="#F5EFE6" opacity="0.53"/><circle cx="12.4" cy="470.3" r="1.7" fill="#F5EFE6" opacity="0.24"/><circle cx="634.4" cy="635.9" r="0.8" fill="#F5EFE6" opacity="0.46"/><circle cx="721.5" cy="380.1" r="2.3" fill="#F5EFE6" opacity="0.18"/><circle cx="485.4" cy="546.0" r="1.5" fill="#F5EFE6" opacity="0.42"/><circle cx="69.9" cy="124.1" r="2.0" fill="#F5EFE6" opacity="0.33"/><circle cx="24.3" cy="424.9" r="1.5" fill="#F5EFE6" opacity="0.39"/><circle cx="221.2" cy="261.3" r="1.7" fill="#F5EFE6" opacity="0.21"/><circle cx="591.9" cy="730.9" r="1.0" fill="#F5EFE6" opacity="0.30"/><circle cx="241.4" cy="626.6" r="1.8" fill="#F5EFE6" opacity="0.25"/><circle cx="358.7" cy="717.9" r="0.7" fill="#F5EFE6" opacity="0.37"/><circle cx="776.4" cy="472.9" r="0.4" fill="#F5EFE6" opacity="0.47"/><circle cx="62.4" cy="93.6" r="2.0" fill="#F5EFE6" opacity="0.36"/><circle cx="175.3" cy="259.0" r="0.8" fill="#F5EFE6" opacity="0.13"/><circle cx="308.7" cy="134.2" r="1.8" fill="#F5EFE6" opacity="0.34"/><circle cx="712.4" cy="393.3" r="0.6" fill="#F5EFE6" opacity="0.49"/><circle cx="724.1" cy="545.0" r="1.2" fill="#F5EFE6" opacity="0.50"/><circle cx="192.3" cy="788.1" r="1.2" fill="#F5EFE6" opacity="0.51"/><circle cx="428.3" cy="415.4" r="0.4" fill="#F5EFE6" opacity="0.11"/><circle cx="41.1" cy="379.4" r="0.6" fill="#F5EFE6" opacity="0.40"/><circle cx="767.1" cy="554.4" r="2.3" fill="#F5EFE6" opacity="0.17"/><circle cx="20.7" cy="743.2" r="0.8" fill="#F5EFE6" opacity="0.14"/><circle cx="218.4" cy="780.6" r="1.1" fill="#F5EFE6" opacity="0.26"/><circle cx="304.0" cy="373.4" r="1.6" fill="#F5EFE6" opacity="0.41"/><circle cx="343.2" cy="306.8" r="1.3" fill="#F5EFE6" opacity="0.31"/>
  <rect width="800" height="800" fill="url(#vig)"/>
  <rect width="800" height="800" filter="url(#grain)" opacity="0.9"/>
</svg>