<?xml version="1.0" encoding="UTF-8"?>
<svg xmlns="http://www.w3.org/2000/svg" width="1400" height="900" viewBox="0 0 1400 900" preserveAspectRatio="xMidYMid slice">
  <defs>
    <linearGradient id="bg" x1="0" y1="0" x2="1" y2="1">
      <stop offset="0" stop-color="#2b1420"/>
      <stop offset="1" stop-color="#0D0B10"/>
    </linearGradient>
    <radialGradient id="vig" cx="0.5" cy="0.42" r="0.9">
      <stop offset="0.45" stop-color="#0D0B10" stop-opacity="0"/>
      <stop offset="1" stop-color="#0D0B10" stop-opacity="0.72"/>
    </radialGradient>
    <filter id="blur" x="-60%" y="-60%" width="220%" height="220%">
      <feGaussianBlur stdDeviation="78"/>
    </filter>
    <filter id="grain">
      <feTurbulence type="fractalNoise" baseFrequency="0.85" numOctaves="2" stitchTiles="stitch"/>
      <feColorMatrix type="saturate" values="0"/>
      <feComponentTransfer><feFuncA type="linear" slope="0.05"/></feComponentTransfer>
      <feComposite operator="over" in2="SourceGraphic"/>
    </filter>
  </defs>
  <rect width="1400" height="900" fill="url(#bg)"/>
  <circle cx="94" cy="502" r="563" fill="#D98C9A" opacity="0.19" filter="url(#blur)"/><circle cx="290" cy="493" r="720" fill="#5A2634" opacity="0.18" filter="url(#blur)"/><circle cx="1332" cy="334" r="711" fill="#C9A86A" opacity="0.10" filter="url(#blur)"/>
  <circle cx="1111" cy="304" r="99" fill="none" stroke="#C9A86A" stroke-opacity="0.16" stroke-width="1" opacity="0.16"/><circle cx="1111" cy="304" r="144" fill="none" stroke="#C9A86A" stroke-opacity="0.09" stroke-width="1" opacity="0.09"/><circle cx="1111" cy="304" r="45" fill="none" stroke="#C9A86A" stroke-opacity="0.12" stroke-width="1" opacity="0.12"/>
  <path d="M0 658 C 280 532, 560 748, 770 613 S 1190 739, 1400 640 L 1400 900 L 0 900 Z" fill="#0D0B10" opacity="0.42"/>
  <path d="
  M0 856
  C 350 703, 770 928, 1400 784
  L 1400 900 L 0 900 Z" fill="#0D0B10" opacity="0.3"/>
  <circle cx="3.3" cy="533.6" r="1.2" fill="#F5EFE6" opacity="0.12"/><circle cx="508.1" cy="816.0" r="0.7" fill="#F5EFE6" opacity="0.25"/><circle cx="655.5" cy="308.3" r="1.2" fill="#F5EFE6" opacity="0.25"/><circle cx="168.8" cy="365.6" r="0.6" fill="#F5EFE6" opacity="0.30"/><circle cx="22.4" cy="285.4" r="1.2" fill="#F5EFE6" opacity="0.15"/><circle cx="928.6" cy="646.7" r="0.9" fill="#F5EFE6" opacity="0.13"/><circle cx="974.7" cy="545.0" r="1.7" fill="#F5EFE6" opacity="0.47"/><circle cx="302.1" cy="52.5" r="0.4" fill="#F5EFE6" opacity="0.29"/><circle cx="1397.7" cy="258.1" r="1.5" fill="#F5EFE6" opacity="0.46"/><circle cx="593.9" cy="611.6" r="1.0" fill="#F5EFE6" opacity="0.54"/><circle cx="502.2" cy="672.9" r="1.4" fill="#F5EFE6" opacity="0.44"/><circle cx="149.9" cy="790.6" r="0.6" fill="#F5EFE6" opacity="0.23"/><circle cx="120.0" cy="323.8" r="1.8" fill="#F5EFE6" opacity="0.46"/><circle cx="798.1" cy="672.3" r="0.7" fill="#F5EFE6" opacity="0.15"/><circle cx="618.4" cy="175.1" r="1.7" fill="#F5EFE6" opacity="0.20"/><circle cx="420.8" cy="775.3" r="1.2" fill="#F5EFE6" opacity="0.11"/><circle cx="1371.0" cy="618.3" r="0.6" fill="#F5EFE6" opacity="0.24"/><circle cx="387.9" cy="178.6" r="1.8" fill="#F5EFE6" opacity="0.38"/><circle cx="562.3" cy="53.1" r="1.3" fill="#F5EFE6" opacity="0.46"/><circle cx="329.0" cy="67.8" r="0.8" fill="#F5EFE6" opacity="0.47"/><circle cx="242.2" cy="661.5" r="1.9" fill="#F5EFE6" opacity="0.20"/><circle cx="479.3" cy="443.3" r="1.5" fill="#F5EFE6" opacity="0.26"/><circle cx="1171.6" cy="414.2" r="0.8" fill="#F5EFE6" opacity="0.19"/><circle cx="917.8" cy="445.8" r="2.2" fill="#F5EFE6" opacity="0.39"/><circle cx="50.8" cy="265.2" r="0.5" fill="#F5EFE6" opacity="0.12"/><circle cx="1019.9" cy="758.8" r="1.3" fill="#F5EFE6" opacity="0.40"/><circle cx="377.6" cy="61.3" r="1.4" fill="#F5EFE6" opacity="0.53"/><circle cx="1217.2" cy="38.3" r="1.5" fill="#F5EFE6" opacity="0.21"/><circle cx="1301.6" cy="100.8" r="0.6" fill="#F5EFE6" opacity="0.30"/><circle cx="126.0" cy="34.4" r="0.6" fill="#F5EFE6" opacity="0.22"/><circle cx="543.3" cy="585.9" r="2.1" fill="#F5EFE6" opacity="0.42"/><circle cx="125.7" cy="590.1" r="1.0" fill="#F5EFE6" opacity="0.20"/><circle cx="629.5" cy="521.5" r="2.3" fill="#F5EFE6" opacity="0.22"/><circle cx="351.2" cy="76.7" r="0.6" fill="#F5EFE6" opacity="0.42"/><circle cx="590.9" cy="366.7" r="1.8" fill="#F5EFE6" opacity="0.33"/><circle cx="871.8" cy="520.3" r="1.2" fill="#F5EFE6" opacity="0.37"/><circle cx="1364.8" cy="34.9" r="1.7" fill="#F5EFE6" opacity="0.12"/><circle cx="1246.1" cy="38.6" r="1.7" fill="#F5EFE6" opacity="0.23"/><circle cx="1309.4" cy="114.2" r="0.6" fill="#F5EFE6" opacity="0.28"/><circle cx="196.5" cy="24.6" r="0.6" fill="#F5EFE6" opacity="0.43"/><circle cx="840.5" cy="365.4" r="0.7" fill="#F5EFE6" opacity="0.18"/><circle cx="757.3" cy="363.4" r="1.1" fill="#F5EFE6" opacity="0.44"/><circle cx="270.9" cy="453.8" r="1.3" fill="#F5EFE6" opacity="0.36"/><circle cx="1042.0" cy="739.6" r="1.1" fill="#F5EFE6" opacity="0.54"/><circle cx="238.4" cy="601.1" r="1.8" fill="#F5EFE6" opacity="0.12"/><circle cx="289.5" cy="128.1" r="1.3" fill="#F5EFE6" opacity="0.30"/><circle cx="203.6" cy="710.8" r="1.5" fill="#F5EFE6" opacity="0.36"/><circle cx="402.9" cy="106.9" r="2.0" fill="#F5EFE6" opacity="0.23"/><circle cx="1005.9" cy="77.4" r="1.4" fill="#F5EFE6" opacity="0.16"/><circle cx="506.2" cy="408.9" r="0.9" fill="#F5EFE6" opacity="0.21"/><circle cx="536.6" cy="327.8" r="0.6" fill="#F5EFE6" opacity="0.23"/><circle cx="325.0" cy="75.8" r="1.9" fill="#F5EFE6" opacity="0.48"/><circle cx="187.1" cy="560.3" r="1.5" fill="#F5EFE6" opacity="0.48"/><circle cx="632.3" cy="588.6" r="1.6" fill="#F5EFE6" opacity="0.28"/><circle cx="23.5" cy="600.5" r="0.9" fill="#F5EFE6" opacity="0.44"/><circle cx="973.5" cy="19.1" r="1.3" fill="#F5EFE6" opacity="0.38"/><circle cx="1036.2" cy="154.7" r="2.2" fill="#F5EFE6" opacity="0.23"/><circle cx="92.4" cy="816.1" r="1.6" fill="#F5EFE6" opacity="0.50"/><circle cx="1019.8" cy="807.9" r="1.5" fill="#F5EFE6" opacity="0.46"/><circle cx="1225.2" cy="227.7" r="0.5" fill="#F5EFE6" opacity="0.51"/><circle cx="465.8" cy="321.7" r="1.8" fill="#F5EFE6" opacity="0.46"/><circle cx="1277.6" cy="600.5" r="1.8" fill="#F5EFE6" opacity="0.21"/><circle cx="1087.8" cy="469.3" r="0.7" fill="#F5EFE6" opacity="0.22"/><circle cx="1090.5" cy="835.0" r="0.5" fill="#F5EFE6" opacity="0.43"/><circle cx="603.1" cy="764.2" r="1.9" fill="#F5EFE6" opacity="0.44"/><circle cx="539.1" cy="397.0" r="1.3" fill="#F5EFE6" opacity="0.37"/><circle cx="1351.6" cy="451.0" r="1.1" fill="#F5EFE6" opacity="0.22"/><circle cx="559.0" cy="32.2" r="1.5" fill="#F5EFE6" opacity="0.19"/><circle cx="484.3" cy="30.3" r="1.1" fill="#F5EFE6" opacity="0.32"/><circle cx="1171.3" cy="849.1" r="0.7" fill="#F5EFE6" opacity="0.52"/><circle cx="537.9" cy="365.6" r="1.8" fill="#F5EFE6" opacity="0.53"/><circle cx="644.5" cy="663.8" r="0.5" fill="#F5EFE6" opacity="0.48"/><circle cx="1265.7" cy="216.9" r="1.0" fill="#F5EFE6" opacity="0.31"/><circle cx="516.7" cy="367.0" r="1.0" fill="#F5EFE6" opacity="0.37"/><circle cx="59.6" cy="45.0" r="1.3" fill="#F5EFE6" opacity="0.20"/><circle cx="796.7" cy="571.6" r="1.4" fill="#F5EFE6" opacity="0.40"/><circle cx="1384.1" cy="56.9" r="1.0" fill="#F5EFE6" opacity="0.53"/><circle cx="910.2" cy="313.7" r="1.4" fill="#F5EFE6" opacity="0.26"/><circle cx="1018.2" cy="886.2" r="0.8" fill="#F5EFE6" opacity="0.37"/><circle cx="79.3" cy="601.2" r="0.6" fill="#F5EFE6" opacity="0.52"/><circle cx="1110.2" cy="546.8" r="1.2" fill="#F5EFE6" opacity="0.15"/><circle cx="1029.0" cy="83.7" r="1.4" fill="#F5EFE6" opacity="0.11"/><circle cx="1320.4" cy="616.7" r="2.1" fill="#F5EFE6" opacity="0.30"/><circle cx="417.6" cy="456.0" r="0.9" fill="#F5EFE6" opacity="0.43"/>
  <rect width="1400" height="900" fill="url(#vig)"/>
  <rect width="1400" height="900" filter="url(#grain)" opacity="0.9"/>
</svg>