<?xml version="1.0" encoding="UTF-8"?>
<svg xmlns="http://www.w3.org/2000/svg" width="900" height="1200" viewBox="0 0 900 1200" preserveAspectRatio="xMidYMid slice">
  <defs>
    <linearGradient id="bg" x1="0" y1="0" x2="1" y2="1">
      <stop offset="0" stop-color="#2b1420"/>
      <stop offset="1" stop-color="#0D0B10"/>
    </linearGradient>
    <radialGradient id="vig" cx="0.5" cy="0.42" r="0.9">
      <stop offset="0.45" stop-color="#0D0B10" stop-opacity="0"/>
      <stop offset="1" stop-color="#0D0B10" stop-opacity="0.72"/>
    </radialGradient>
    <filter id="blur" x="-60%" y="-60%" width="220%" height="220%">
      <feGaussianBlur stdDeviation="50"/>
    </filter>
    <filter id="grain">
      <feTurbulence type="fractalNoise" baseFrequency="0.85" numOctaves="2" stitchTiles="stitch"/>
      <feColorMatrix type="saturate" values="0"/>
      <feComponentTransfer><feFuncA type="linear" slope="0.05"/></feComponentTransfer>
      <feComposite operator="over" in2="SourceGraphic"/>
    </filter>
  </defs>
  <rect width="900" height="1200" fill="url(#bg)"/>
  <circle cx="632" cy="1038" r="455" fill="#D98C9A" opacity="0.23" filter="url(#blur)"/><circle cx="703" cy="1169" r="438" fill="#5A2634" opacity="0.18" filter="url(#blur)"/><circle cx="144" cy="128" r="363" fill="#C9A86A" opacity="0.10" filter="url(#blur)"/>
  <circle cx="327" cy="293" r="99" fill="none" stroke="#C9A86A" stroke-opacity="0.16" stroke-width="1" opacity="0.16"/><circle cx="327" cy="293" r="144" fill="none" stroke="#C9A86A" stroke-opacity="0.09" stroke-width="1" opacity="0.09"/><circle cx="327" cy="293" r="45" fill="none" stroke="#C9A86A" stroke-opacity="0.12" stroke-width="1" opacity="0.12"/>
  <path d="M0 799 C 180 631, 360 919, 495 739 S 765 907, 900 775 L 900 1200 L 0 1200 Z" fill="#0D0B10" opacity="0.42"/>
  <path d="
  M0 1063
  C 225 859, 495 1159, 900 967
  L 900 1200 L 0 1200 Z" fill="#0D0B10" opacity="0.3"/>
  <circle cx="0.7" cy="342.4" r="1.0" fill="#F5EFE6" opacity="0.25"/><circle cx="728.5" cy="137.9" r="1.8" fill="#F5EFE6" opacity="0.35"/><circle cx="548.0" cy="484.8" r="1.8" fill="#F5EFE6" opacity="0.31"/><circle cx="834.7" cy="590.1" r="1.2" fill="#F5EFE6" opacity="0.32"/><circle cx="707.5" cy="933.0" r="1.8" fill="#F5EFE6" opacity="0.44"/><circle cx="149.5" cy="436.9" r="1.3" fill="#F5EFE6" opacity="0.54"/><circle cx="416.6" cy="263.8" r="0.9" fill="#F5EFE6" opacity="0.12"/><circle cx="14.3" cy="984.3" r="2.2" fill="#F5EFE6" opacity="0.54"/><circle cx="457.0" cy="952.7" r="1.1" fill="#F5EFE6" opacity="0.17"/><circle cx="806.8" cy="477.0" r="0.6" fill="#F5EFE6" opacity="0.50"/><circle cx="855.8" cy="285.1" r="2.3" fill="#F5EFE6" opacity="0.14"/><circle cx="723.0" cy="409.5" r="1.9" fill="#F5EFE6" opacity="0.26"/><circle cx="489.3" cy="93.1" r="1.2" fill="#F5EFE6" opacity="0.21"/><circle cx="13.7" cy="918.7" r="0.9" fill="#F5EFE6" opacity="0.47"/><circle cx="124.4" cy="795.9" r="2.0" fill="#F5EFE6" opacity="0.15"/><circle cx="333.0" cy="1148.2" r="0.7" fill="#F5EFE6" opacity="0.20"/><circle cx="585.8" cy="1070.0" r="2.1" fill="#F5EFE6" opacity="0.17"/><circle cx="651.8" cy="538.4" r="1.5" fill="#F5EFE6" opacity="0.46"/><circle cx="886.7" cy="354.7" r="1.4" fill="#F5EFE6" opacity="0.51"/><circle cx="35.1" cy="70.2" r="2.1" fill="#F5EFE6" opacity="0.46"/><circle cx="548.6" cy="794.3" r="1.5" fill="#F5EFE6" opacity="0.34"/><circle cx="623.7" cy="700.7" r="1.1" fill="#F5EFE6" opacity="0.22"/><circle cx="850.7" cy="895.0" r="1.5" fill="#F5EFE6" opacity="0.52"/><circle cx="407.3" cy="1008.8" r="1.7" fill="#F5EFE6" opacity="0.30"/><circle cx="558.1" cy="1191.1" r="0.8" fill="#F5EFE6" opacity="0.53"/><circle cx="240.9" cy="311.6" r="0.4" fill="#F5EFE6" opacity="0.10"/><circle cx="473.1" cy="884.6" r="0.5" fill="#F5EFE6" opacity="0.25"/><circle cx="881.5" cy="415.8" r="1.3" fill="#F5EFE6" opacity="0.36"/><circle cx="11.7" cy="1157.4" r="0.6" fill="#F5EFE6" opacity="0.12"/><circle cx="122.9" cy="585.5" r="0.8" fill="#F5EFE6" opacity="0.18"/><circle cx="171.0" cy="880.1" r="1.0" fill="#F5EFE6" opacity="0.48"/><circle cx="643.1" cy="830.1" r="1.8" fill="#F5EFE6" opacity="0.20"/><circle cx="243.4" cy="85.8" r="1.5" fill="#F5EFE6" opacity="0.49"/><circle cx="165.5" cy="979.2" r="2.2" fill="#F5EFE6" opacity="0.17"/><circle cx="426.5" cy="1081.0" r="1.0" fill="#F5EFE6" opacity="0.28"/><circle cx="540.9" cy="595.5" r="0.7" fill="#F5EFE6" opacity="0.53"/><circle cx="282.4" cy="342.5" r="1.0" fill="#F5EFE6" opacity="0.12"/><circle cx="418.3" cy="408.0" r="2.0" fill="#F5EFE6" opacity="0.13"/><circle cx="656.2" cy="210.6" r="0.9" fill="#F5EFE6" opacity="0.35"/><circle cx="718.1" cy="932.0" r="1.9" fill="#F5EFE6" opacity="0.15"/><circle cx="28.8" cy="143.5" r="1.0" fill="#F5EFE6" opacity="0.34"/><circle cx="779.3" cy="82.8" r="0.5" fill="#F5EFE6" opacity="0.25"/><circle cx="626.5" cy="529.9" r="0.9" fill="#F5EFE6" opacity="0.30"/><circle cx="278.6" cy="458.5" r="0.7" fill="#F5EFE6" opacity="0.50"/><circle cx="502.9" cy="775.3" r="0.6" fill="#F5EFE6" opacity="0.54"/><circle cx="271.7" cy="818.8" r="1.7" fill="#F5EFE6" opacity="0.14"/><circle cx="734.6" cy="888.1" r="1.6" fill="#F5EFE6" opacity="0.46"/><circle cx="236.4" cy="1136.2" r="1.5" fill="#F5EFE6" opacity="0.15"/><circle cx="575.8" cy="688.5" r="1.0" fill="#F5EFE6" opacity="0.41"/><circle cx="79.3" cy="1087.9" r="1.1" fill="#F5EFE6" opacity="0.23"/><circle cx="528.4" cy="1107.4" r="1.7" fill="#F5EFE6" opacity="0.28"/><circle cx="880.4" cy="265.1" r="0.9" fill="#F5EFE6" opacity="0.53"/><circle cx="402.1" cy="980.3" r="0.9" fill="#F5EFE6" opacity="0.34"/><circle cx="399.5" cy="845.4" r="1.9" fill="#F5EFE6" opacity="0.23"/><circle cx="785.5" cy="432.1" r="2.1" fill="#F5EFE6" opacity="0.52"/><circle cx="440.2" cy="28.5" r="1.9" fill="#F5EFE6" opacity="0.36"/><circle cx="50.1" cy="459.9" r="1.2" fill="#F5EFE6" opacity="0.50"/><circle cx="139.5" cy="696.0" r="1.3" fill="#F5EFE6" opacity="0.50"/><circle cx="844.9" cy="70.4" r="1.3" fill="#F5EFE6" opacity="0.52"/><circle cx="691.9" cy="58.0" r="2.1" fill="#F5EFE6" opacity="0.54"/><circle cx="28.7" cy="494.7" r="0.8" fill="#F5EFE6" opacity="0.31"/><circle cx="792.9" cy="436.1" r="2.1" fill="#F5EFE6" opacity="0.33"/><circle cx="611.4" cy="301.7" r="0.5" fill="#F5EFE6" opacity="0.14"/><circle cx="97.7" cy="553.0" r="0.9" fill="#F5EFE6" opacity="0.19"/><circle cx="838.7" cy="884.1" r="1.8" fill="#F5EFE6" opacity="0.32"/><circle cx="540.9" cy="839.4" r="1.4" fill="#F5EFE6" opacity="0.21"/><circle cx="148.0" cy="704.1" r="1.5" fill="#F5EFE6" opacity="0.36"/><circle cx="168.4" cy="325.4" r="0.7" fill="#F5EFE6" opacity="0.42"/><circle cx="337.7" cy="228.8" r="2.1" fill="#F5EFE6" opacity="0.41"/><circle cx="417.1" cy="204.5" r="1.7" fill="#F5EFE6" opacity="0.32"/><circle cx="531.6" cy="171.5" r="1.1" fill="#F5EFE6" opacity="0.24"/><circle cx="584.5" cy="950.8" r="1.9" fill="#F5EFE6" opacity="0.20"/>
  <rect width="900" height="1200" fill="url(#vig)"/>
  <rect width="900" height="1200" filter="url(#grain)" opacity="0.9"/>
</svg>